<?xml version="1.0" encoding="us-ascii" standalone="no"?><svg xmlns="http://www.w3.org/2000/svg" xmlns:xlink="http://www.w3.org/1999/xlink" contentStyleType="text/css" height="2525px" preserveAspectRatio="none" style="width:3650px;height:2525px;background:#FFFFFF;" version="1.1" viewBox="0 0 3650 2525" width="3650px" zoomAndPan="magnify"><defs/><g><text fill="#000000" font-family="sans-serif" font-size="43.75" font-weight="bold" lengthAdjust="spacing" textLength="653.125" x="1503.125" y="93.6435">YGK Evaluation Process (UC-8)</text><rect fill="#FFFFFF" height="1648.7195" style="stroke:#181818;stroke-width:3.125;" width="31.25" x="1104.6875" y="509.093"/><rect fill="#FFFFFF" height="1171.1443" style="stroke:#181818;stroke-width:3.125;" width="31.25" x="1789.0625" y="747.8806"/><rect fill="#FFFFFF" height="436.9502" style="stroke:#181818;stroke-width:3.125;" width="31.25" x="2526.5625" y="846.9619"/><rect fill="#FFFFFF" height="99.0813" style="stroke:#181818;stroke-width:3.125;" width="31.25" x="2526.5625" y="1382.9934"/><line style="stroke:#181818;stroke-width:1.5625;stroke-dasharray:5.0,5.0;" x1="150" x2="150" y1="403.7617" y2="2214.0625"/><line style="stroke:#181818;stroke-width:1.5625;stroke-dasharray:5.0,5.0;" x1="1118.75" x2="1118.75" y1="403.7617" y2="2214.0625"/><line style="stroke:#181818;stroke-width:1.5625;stroke-dasharray:5.0,5.0;" x1="1803.125" x2="1803.125" y1="403.7617" y2="2214.0625"/><line style="stroke:#181818;stroke-width:1.5625;stroke-dasharray:5.0,5.0;" x1="2540.625" x2="2540.625" y1="403.7617" y2="2214.0625"/><line style="stroke:#181818;stroke-width:1.5625;stroke-dasharray:5.0,5.0;" x1="3215.625" x2="3215.625" y1="403.7617" y2="2214.0625"/><text fill="#000000" font-family="sans-serif" font-size="43.75" lengthAdjust="spacing" textLength="253.125" x="15.625" y="390.943">YgkMember</text><ellipse cx="151.5625" cy="183.237" fill="#E2E2F0" rx="25" ry="25" style="stroke:#181818;stroke-width:1.5625;"/><path d="M151.5625,208.237 L151.5625,292.612 M110.9375,233.237 L192.1875,233.237 M151.5625,292.612 L110.9375,339.487 M151.5625,292.612 L192.1875,339.487 " fill="none" style="stroke:#181818;stroke-width:1.5625;"/><text fill="#000000" font-family="sans-serif" font-size="43.75" lengthAdjust="spacing" textLength="253.125" x="15.625" y="2257.7061">YgkMember</text><ellipse cx="151.5625" cy="2297.0873" fill="#E2E2F0" rx="25" ry="25" style="stroke:#181818;stroke-width:1.5625;"/><path d="M151.5625,2322.0873 L151.5625,2406.4623 M110.9375,2347.0873 L192.1875,2347.0873 M151.5625,2406.4623 L110.9375,2453.3373 M151.5625,2406.4623 L192.1875,2453.3373 " fill="none" style="stroke:#181818;stroke-width:1.5625;"/><rect fill="#E2E2F0" height="103.3372" rx="7.8125" ry="7.8125" style="stroke:#181818;stroke-width:1.5625;" width="396.875" x="921.875" y="297.2995"/><text fill="#000000" font-family="sans-serif" font-size="43.75" lengthAdjust="spacing" textLength="353.125" x="943.75" y="365.943">YgkDashboardUI</text><rect fill="#E2E2F0" height="103.3372" rx="7.8125" ry="7.8125" style="stroke:#181818;stroke-width:1.5625;" width="396.875" x="921.875" y="2210.9375"/><text fill="#000000" font-family="sans-serif" font-size="43.75" lengthAdjust="spacing" textLength="353.125" x="943.75" y="2279.5811">YgkDashboardUI</text><rect fill="#E2E2F0" height="103.3372" rx="7.8125" ry="7.8125" style="stroke:#181818;stroke-width:1.5625;" width="546.875" x="1531.25" y="297.2995"/><text fill="#000000" font-family="sans-serif" font-size="43.75" lengthAdjust="spacing" textLength="503.125" x="1553.125" y="365.943">YgkEvaluationController</text><rect fill="#E2E2F0" height="103.3372" rx="7.8125" ry="7.8125" style="stroke:#181818;stroke-width:1.5625;" width="546.875" x="1531.25" y="2210.9375"/><text fill="#000000" font-family="sans-serif" font-size="43.75" lengthAdjust="spacing" textLength="503.125" x="1553.125" y="2279.5811">YgkEvaluationController</text><rect fill="#E2E2F0" height="103.3372" rx="7.8125" ry="7.8125" style="stroke:#181818;stroke-width:1.5625;" width="428.125" x="2328.125" y="297.2995"/><text fill="#000000" font-family="sans-serif" font-size="43.75" lengthAdjust="spacing" textLength="384.375" x="2350" y="365.943">IEvaluationService</text><rect fill="#E2E2F0" height="103.3372" rx="7.8125" ry="7.8125" style="stroke:#181818;stroke-width:1.5625;" width="428.125" x="2328.125" y="2210.9375"/><text fill="#000000" font-family="sans-serif" font-size="43.75" lengthAdjust="spacing" textLength="384.375" x="2350" y="2279.5811">IEvaluationService</text><text fill="#000000" font-family="sans-serif" font-size="43.75" lengthAdjust="spacing" textLength="196.875" x="3109.375" y="331.3558">Database</text><text fill="#000000" font-family="sans-serif" font-size="43.75" lengthAdjust="spacing" textLength="840.625" x="2787.5" y="390.943">(TransferApplication / EvaluationReport)</text><path d="M3160.9375,172.0872 C3160.9375,140.8372 3217.1875,140.8372 3217.1875,140.8372 C3217.1875,140.8372 3273.4375,140.8372 3273.4375,172.0872 L3273.4375,253.3372 C3273.4375,284.5872 3217.1875,284.5872 3217.1875,284.5872 C3217.1875,284.5872 3160.9375,284.5872 3160.9375,253.3372 L3160.9375,172.0872 " fill="#E2E2F0" style="stroke:#181818;stroke-width:4.6875;"/><path d="M3160.9375,172.0872 C3160.9375,203.3372 3217.1875,203.3372 3217.1875,203.3372 C3217.1875,203.3372 3273.4375,203.3372 3273.4375,172.0872 " fill="none" style="stroke:#181818;stroke-width:4.6875;"/><text fill="#000000" font-family="sans-serif" font-size="43.75" lengthAdjust="spacing" textLength="196.875" x="3109.375" y="2257.7061">Database</text><text fill="#000000" font-family="sans-serif" font-size="43.75" lengthAdjust="spacing" textLength="840.625" x="2787.5" y="2317.2933">(TransferApplication / EvaluationReport)</text><path d="M3160.9375,2361.362 C3160.9375,2330.112 3217.1875,2330.112 3217.1875,2330.112 C3217.1875,2330.112 3273.4375,2330.112 3273.4375,2361.362 L3273.4375,2442.612 C3273.4375,2473.862 3217.1875,2473.862 3217.1875,2473.862 C3217.1875,2473.862 3160.9375,2473.862 3160.9375,2442.612 L3160.9375,2361.362 " fill="#E2E2F0" style="stroke:#181818;stroke-width:4.6875;"/><path d="M3160.9375,2361.362 C3160.9375,2392.612 3217.1875,2392.612 3217.1875,2392.612 C3217.1875,2392.612 3273.4375,2392.612 3273.4375,2361.362 " fill="none" style="stroke:#181818;stroke-width:4.6875;"/><rect fill="#FFFFFF" height="1648.7195" style="stroke:#181818;stroke-width:3.125;" width="31.25" x="1104.6875" y="509.093"/><rect fill="#FFFFFF" height="1171.1443" style="stroke:#181818;stroke-width:3.125;" width="31.25" x="1789.0625" y="747.8806"/><rect fill="#FFFFFF" height="436.9502" style="stroke:#181818;stroke-width:3.125;" width="31.25" x="2526.5625" y="846.9619"/><rect fill="#FFFFFF" height="99.0813" style="stroke:#181818;stroke-width:3.125;" width="31.25" x="2526.5625" y="1382.9934"/><polygon fill="#181818" points="1067.1875,496.593,1098.4375,509.093,1067.1875,521.593,1079.6875,509.093" style="stroke:#181818;stroke-width:3.125;"/><line style="stroke:#181818;stroke-width:3.125;" x1="151.5625" x2="1085.9375" y1="509.093" y2="509.093"/><text fill="#000000" font-family="sans-serif" font-size="40.625" lengthAdjust="spacing" textLength="478.125" x="173.4375" y="490.9399">Clicks to evaluate student</text><line style="stroke:#181818;stroke-width:3.125;" x1="1135.9375" x2="1267.1875" y1="608.1743" y2="608.1743"/><line style="stroke:#181818;stroke-width:3.125;" x1="1267.1875" x2="1267.1875" y1="608.1743" y2="648.7993"/><line style="stroke:#181818;stroke-width:3.125;" x1="1139.0625" x2="1267.1875" y1="648.7993" y2="648.7993"/><polygon fill="#181818" points="1170.3125,636.2993,1139.0625,648.7993,1170.3125,661.2993,1157.8125,648.7993" style="stroke:#181818;stroke-width:3.125;"/><text fill="#000000" font-family="sans-serif" font-size="40.625" lengthAdjust="spacing" textLength="471.875" x="1157.8125" y="590.0212">displayEvaluationModal()</text><polygon fill="#181818" points="1751.5625,735.3806,1782.8125,747.8806,1751.5625,760.3806,1764.0625,747.8806" style="stroke:#181818;stroke-width:3.125;"/><line style="stroke:#181818;stroke-width:3.125;" x1="1135.9375" x2="1770.3125" y1="747.8806" y2="747.8806"/><text fill="#000000" font-family="sans-serif" font-size="40.625" lengthAdjust="spacing" textLength="593.75" x="1157.8125" y="729.7275">initiateEvaluation(applicationId)</text><polygon fill="#181818" points="2489.0625,834.4619,2520.3125,846.9619,2489.0625,859.4619,2501.5625,846.9619" style="stroke:#181818;stroke-width:3.125;"/><line style="stroke:#181818;stroke-width:3.125;" x1="1820.3125" x2="2507.8125" y1="846.9619" y2="846.9619"/><text fill="#000000" font-family="sans-serif" font-size="40.625" lengthAdjust="spacing" textLength="646.875" x="1842.1875" y="828.8088">calculateCompositeScore(gpa, yks)</text><polygon fill="#181818" points="3179.6875,933.5432,3210.9375,946.0432,3179.6875,958.5432,3192.1875,946.0432" style="stroke:#181818;stroke-width:3.125;"/><line style="stroke:#181818;stroke-width:3.125;" x1="2557.8125" x2="3198.4375" y1="946.0432" y2="946.0432"/><text fill="#000000" font-family="sans-serif" font-size="40.625" lengthAdjust="spacing" textLength="568.75" x="2579.6875" y="927.8901">Fetch TransferApplication data</text><polygon fill="#181818" points="2592.1875,1032.6245,2560.9375,1045.1245,2592.1875,1057.6245,2579.6875,1045.1245" style="stroke:#181818;stroke-width:3.125;"/><line style="stroke:#181818;stroke-width:3.125;stroke-dasharray:2.0,2.0;" x1="2573.4375" x2="3214.0625" y1="1045.1245" y2="1045.1245"/><text fill="#000000" font-family="sans-serif" font-size="40.625" lengthAdjust="spacing" textLength="443.75" x="2610.9375" y="1026.9714">Return gpa, yksRanking</text><line style="stroke:#181818;stroke-width:3.125;" x1="2557.8125" x2="2689.0625" y1="1144.2058" y2="1144.2058"/><line style="stroke:#181818;stroke-width:3.125;" x1="2689.0625" x2="2689.0625" y1="1144.2058" y2="1184.8308"/><line style="stroke:#181818;stroke-width:3.125;" x1="2560.9375" x2="2689.0625" y1="1184.8308" y2="1184.8308"/><polygon fill="#181818" points="2592.1875,1172.3308,2560.9375,1184.8308,2592.1875,1197.3308,2579.6875,1184.8308" style="stroke:#181818;stroke-width:3.125;"/><text fill="#000000" font-family="sans-serif" font-size="40.625" lengthAdjust="spacing" textLength="371.875" x="2579.6875" y="1126.0527">Compute final score</text><polygon fill="#181818" points="1854.6875,1271.4121,1823.4375,1283.9121,1854.6875,1296.4121,1842.1875,1283.9121" style="stroke:#181818;stroke-width:3.125;"/><line style="stroke:#181818;stroke-width:3.125;stroke-dasharray:2.0,2.0;" x1="1835.9375" x2="2539.0625" y1="1283.9121" y2="1283.9121"/><text fill="#000000" font-family="sans-serif" font-size="40.625" lengthAdjust="spacing" textLength="437.5" x="1873.4375" y="1265.759">Return compositeScore</text><polygon fill="#181818" points="2489.0625,1370.4934,2520.3125,1382.9934,2489.0625,1395.4934,2501.5625,1382.9934" style="stroke:#181818;stroke-width:3.125;"/><line style="stroke:#181818;stroke-width:3.125;" x1="1820.3125" x2="2507.8125" y1="1382.9934" y2="1382.9934"/><text fill="#000000" font-family="sans-serif" font-size="40.625" lengthAdjust="spacing" textLength="559.375" x="1842.1875" y="1364.8403">verifyDepartmentConditions()</text><polygon fill="#181818" points="1854.6875,1469.5747,1823.4375,1482.0747,1854.6875,1494.5747,1842.1875,1482.0747" style="stroke:#181818;stroke-width:3.125;"/><line style="stroke:#181818;stroke-width:3.125;stroke-dasharray:2.0,2.0;" x1="1835.9375" x2="2539.0625" y1="1482.0747" y2="1482.0747"/><text fill="#000000" font-family="sans-serif" font-size="40.625" lengthAdjust="spacing" textLength="596.875" x="1873.4375" y="1463.9216">Return conditionsMet (Boolean)</text><polygon fill="#181818" points="3179.6875,1568.656,3210.9375,1581.156,3179.6875,1593.656,3192.1875,1581.156" style="stroke:#181818;stroke-width:3.125;"/><line style="stroke:#181818;stroke-width:3.125;" x1="1820.3125" x2="3198.4375" y1="1581.156" y2="1581.156"/><text fill="#000000" font-family="sans-serif" font-size="40.625" lengthAdjust="spacing" textLength="771.875" x="1842.1875" y="1563.0029">Save EvaluationReport (score, conditions)</text><polygon fill="#181818" points="1854.6875,1667.7373,1823.4375,1680.2373,1854.6875,1692.7373,1842.1875,1680.2373" style="stroke:#181818;stroke-width:3.125;"/><line style="stroke:#181818;stroke-width:3.125;stroke-dasharray:2.0,2.0;" x1="1835.9375" x2="3214.0625" y1="1680.2373" y2="1680.2373"/><text fill="#000000" font-family="sans-serif" font-size="40.625" lengthAdjust="spacing" textLength="243.75" x="1873.4375" y="1662.0842">Confirm save</text><line style="stroke:#181818;stroke-width:3.125;" x1="1820.3125" x2="1951.5625" y1="1779.3186" y2="1779.3186"/><line style="stroke:#181818;stroke-width:3.125;" x1="1951.5625" x2="1951.5625" y1="1779.3186" y2="1819.9436"/><line style="stroke:#181818;stroke-width:3.125;" x1="1823.4375" x2="1951.5625" y1="1819.9436" y2="1819.9436"/><polygon fill="#181818" points="1854.6875,1807.4436,1823.4375,1819.9436,1854.6875,1832.4436,1842.1875,1819.9436" style="stroke:#181818;stroke-width:3.125;"/><text fill="#000000" font-family="sans-serif" font-size="40.625" lengthAdjust="spacing" textLength="440.625" x="1842.1875" y="1761.1655">generateDraftRanking()</text><polygon fill="#181818" points="1170.3125,1906.5249,1139.0625,1919.0249,1170.3125,1931.5249,1157.8125,1919.0249" style="stroke:#181818;stroke-width:3.125;"/><line style="stroke:#181818;stroke-width:3.125;stroke-dasharray:2.0,2.0;" x1="1151.5625" x2="1801.5625" y1="1919.0249" y2="1919.0249"/><text fill="#000000" font-family="sans-serif" font-size="40.625" lengthAdjust="spacing" textLength="571.875" x="1189.0625" y="1900.8718">Return success &amp; draft ranking</text><line style="stroke:#181818;stroke-width:3.125;" x1="1135.9375" x2="1267.1875" y1="2018.1062" y2="2018.1062"/><line style="stroke:#181818;stroke-width:3.125;" x1="1267.1875" x2="1267.1875" y1="2018.1062" y2="2058.7312"/><line style="stroke:#181818;stroke-width:3.125;" x1="1139.0625" x2="1267.1875" y1="2058.7312" y2="2058.7312"/><polygon fill="#181818" points="1170.3125,2046.2312,1139.0625,2058.7312,1170.3125,2071.2312,1157.8125,2058.7312" style="stroke:#181818;stroke-width:3.125;"/><text fill="#000000" font-family="sans-serif" font-size="40.625" lengthAdjust="spacing" textLength="381.25" x="1157.8125" y="1999.9531">lockReadonlyFields()</text><polygon fill="#181818" points="185.9375,2145.3125,154.6875,2157.8125,185.9375,2170.3125,173.4375,2157.8125" style="stroke:#181818;stroke-width:3.125;"/><line style="stroke:#181818;stroke-width:3.125;stroke-dasharray:2.0,2.0;" x1="167.1875" x2="1117.1875" y1="2157.8125" y2="2157.8125"/><text fill="#000000" font-family="sans-serif" font-size="40.625" lengthAdjust="spacing" textLength="878.125" x="204.6875" y="2139.6594">Display evaluation results and updated ranking</text><!--SRC=[ZLF1QXin5BphAnu-X5s8QQ2NuaEXzZR154EnwqEWbsVfhIDMAosIrk2_hsHhAoLEIa-ML_D6CwEHbruHF3_zWEydL2DwQJJyj8QJSr3jL_ClDNETr0DQx44C4Zu_F326t1iBi-TZjw7-G7O6w63loB80z9BB0RM_x3VeNWu6hTYlhw3r3IIVl3BQMwDK8in_Ny-iyyIEx4boki3JcWdqU417C6lIwhUkVbdKhYNxRHYKv5UVdmhJMngCzVM5g5ao5it0_6lGku1LcEWSU0DqnHCuFmhIFWOXJ_53yBLVJmD2ka7XERDlZ41LrInXih45I2sz30mPN67Mk1PrFgF8W-Lr94pM5y1HyL45yChqWt7IquuRIzLnm7iuTwvWc-9Alv6cMIxWaJn_WVVYYhcoPWdpyi0j-T5gcFYtg4DRZYNfNsYKD8Q3MwbHWOkwCkvDAecMltB11Dse_oY84rdPdXkAnUd3JGMOaD66g_wLmKSofk4DUQYMnYX2NV-7dfZe3azqqpIeBW7S5zpr56wf8AnRQNjmWUGjUOaxaYORX3GMMvzk8HQkd4ZjJARSo2-l_0v4d06RhgumLHOkjriPtcq9XT7g_2X9YHXft8xxBeffhlsVdaiiZoKtAky0jO1n25KYyTw9uHdz0G00]--></g></svg>